<?xml version="1.0" encoding="UTF-8" standalone="no"?>
<!DOCTYPE svg PUBLIC "-//W3C//DTD SVG 1.1//EN"
 "http://www.w3.org/Graphics/SVG/1.1/DTD/svg11.dtd">
<!-- Generated by graphviz version 2.38.0 (20140413.2041)
 -->
<!-- Title: DistruptorPattern Pages: 1 -->
<svg width="761pt" height="576pt"
 viewBox="0.00 0.00 761.00 576.00" xmlns="http://www.w3.org/2000/svg" xmlns:xlink="http://www.w3.org/1999/xlink">
<g id="graph0" class="graph" transform="scale(1 1) rotate(0) translate(4 572)">
<title>DistruptorPattern</title>
<polygon fill="white" stroke="none" points="-4,4 -4,-572 757,-572 757,4 -4,4"/>
<!-- rank0 -->
<g id="node1" class="node"><title>rank0</title>
</g>
<!-- rank1 -->
<g id="node2" class="node"><title>rank1</title>
</g>
<!-- rank0&#45;&gt;rank1 -->
<!-- rank2 -->
<g id="node3" class="node"><title>rank2</title>
</g>
<!-- rank1&#45;&gt;rank2 -->
<!-- rank3 -->
<g id="node4" class="node"><title>rank3</title>
</g>
<!-- rank2&#45;&gt;rank3 -->
<!-- rank4 -->
<g id="node5" class="node"><title>rank4</title>
</g>
<!-- rank3&#45;&gt;rank4 -->
<!-- rank5 -->
<g id="node6" class="node"><title>rank5</title>
</g>
<!-- rank4&#45;&gt;rank5 -->
<!-- rank6 -->
<g id="node7" class="node"><title>rank6</title>
</g>
<!-- rank5&#45;&gt;rank6 -->
<!-- Align1 -->
<g id="node8" class="node"><title>Align1</title>
</g>
<!-- SingleThreadedClaimStrategy -->
<g id="node19" class="node"><title>SingleThreadedClaimStrategy</title>
<polygon fill="none" stroke="black" points="90,-176.5 90,-230.5 212,-230.5 212,-176.5 90,-176.5"/>
<text text-anchor="middle" x="151" y="-219.3" font-family="Times New Roman,serif" font-size="9.00">SingleThreadedClaimStrategy</text>
<polyline fill="none" stroke="black" points="90,-212.5 212,-212.5 "/>
<text text-anchor="middle" x="151" y="-201.3" font-family="Times New Roman,serif" font-size="9.00"> </text>
<polyline fill="none" stroke="black" points="90,-194.5 212,-194.5 "/>
<text text-anchor="middle" x="151" y="-183.3" font-family="Times New Roman,serif" font-size="9.00"> </text>
</g>
<!-- Align1&#45;&gt;SingleThreadedClaimStrategy -->
<!-- EntryFactory -->
<g id="node9" class="node"><title>EntryFactory</title>
<polygon fill="none" stroke="black" points="250,-441.5 250,-487.5 318,-487.5 318,-441.5 250,-441.5"/>
<text text-anchor="middle" x="284" y="-476.3" font-family="Times New Roman,serif" font-size="9.00">&lt;&lt;interface&gt;&gt;</text>
<text text-anchor="middle" x="284" y="-466.3" font-family="Times New Roman,serif" font-size="9.00">EntryFactory</text>
<polyline fill="none" stroke="black" points="250,-459.5 318,-459.5 "/>
<text text-anchor="middle" x="284" y="-448.3" font-family="Times New Roman,serif" font-size="9.00"> </text>
</g>
<!-- Entry -->
<g id="node10" class="node"><title>Entry</title>
<polygon fill="none" stroke="black" points="250,-348.5 250,-394.5 318,-394.5 318,-348.5 250,-348.5"/>
<text text-anchor="middle" x="284" y="-383.3" font-family="Times New Roman,serif" font-size="9.00">&lt;&lt;interface&gt;&gt;</text>
<text text-anchor="middle" x="284" y="-373.3" font-family="Times New Roman,serif" font-size="9.00">Entry</text>
<polyline fill="none" stroke="black" points="250,-366.5 318,-366.5 "/>
<text text-anchor="middle" x="284" y="-355.3" font-family="Times New Roman,serif" font-size="9.00"> </text>
</g>
<!-- EntryFactory&#45;&gt;Entry -->
<!-- ClaimStrategy -->
<g id="node14" class="node"><title>ClaimStrategy</title>
<polygon fill="none" stroke="black" points="250,-264.5 250,-310.5 318,-310.5 318,-264.5 250,-264.5"/>
<text text-anchor="middle" x="284" y="-299.3" font-family="Times New Roman,serif" font-size="9.00">&lt;&lt;interface&gt;&gt;</text>
<text text-anchor="middle" x="284" y="-289.3" font-family="Times New Roman,serif" font-size="9.00">ClaimStrategy</text>
<polyline fill="none" stroke="black" points="250,-282.5 318,-282.5 "/>
<text text-anchor="middle" x="284" y="-271.3" font-family="Times New Roman,serif" font-size="9.00"> </text>
</g>
<!-- Entry&#45;&gt;ClaimStrategy -->
<!-- RingBuffer -->
<g id="node11" class="node"><title>RingBuffer</title>
<polygon fill="none" stroke="black" points="390,-344.5 390,-398.5 446,-398.5 446,-344.5 390,-344.5"/>
<text text-anchor="middle" x="418" y="-387.3" font-family="Times New Roman,serif" font-size="9.00">RingBuffer</text>
<polyline fill="none" stroke="black" points="390,-380.5 446,-380.5 "/>
<text text-anchor="middle" x="418" y="-369.3" font-family="Times New Roman,serif" font-size="9.00"> </text>
<polyline fill="none" stroke="black" points="390,-362.5 446,-362.5 "/>
<text text-anchor="middle" x="418" y="-351.3" font-family="Times New Roman,serif" font-size="9.00"> </text>
</g>
<!-- RingBuffer&#45;&gt;EntryFactory -->
<g id="edge18" class="edge"><title>RingBuffer:r0&#45;&gt;EntryFactory:r0</title>
<path fill="none" stroke="black" stroke-dasharray="1,5" d="M389,-389.5C389,-389.5 342.789,-444.953 325.46,-465.748"/>
<polygon fill="black" stroke="black" points="319,-473.5 321.945,-462.937 322.201,-469.659 325.402,-465.818 325.402,-465.818 325.402,-465.818 322.201,-469.659 328.859,-468.699 319,-473.5 319,-473.5"/>
<text text-anchor="middle" x="372" y="-417.8" font-family="Times New Roman,serif" font-size="9.00">fill</text>
<text text-anchor="middle" x="386.5" y="-392.3" font-family="Times New Roman,serif" font-size="9.00">1</text>
</g>
<!-- RingBuffer&#45;&gt;Entry -->
<g id="edge19" class="edge"><title>RingBuffer&#45;&gt;Entry</title>
<path fill="none" stroke="black" d="M377.82,-371.5C361.256,-371.5 344.692,-371.5 328.128,-371.5"/>
<polygon fill="black" stroke="black" points="377.882,-371.5 383.882,-367.5 389.882,-371.5 383.882,-375.5 377.882,-371.5"/>
<polygon fill="black" stroke="black" points="318.023,-371.5 328.023,-367 323.023,-371.5 328.023,-371.5 328.023,-371.5 328.023,-371.5 323.023,-371.5 328.023,-376 318.023,-371.5 318.023,-371.5"/>
<text text-anchor="middle" x="325.023" y="-374.3" font-family="Times New Roman,serif" font-size="9.00">1..*</text>
</g>
<!-- RingBuffer&#45;&gt;ClaimStrategy -->
<g id="edge23" class="edge"><title>RingBuffer&#45;&gt;ClaimStrategy</title>
<path fill="none" stroke="black" d="M379.613,-347.01C363.13,-336.923 343.803,-325.096 326.855,-314.725"/>
<polygon fill="black" stroke="black" points="379.674,-347.046 386.879,-346.766 389.909,-353.31 382.704,-353.59 379.674,-347.046"/>
<polygon fill="black" stroke="black" points="318.237,-309.451 329.115,-310.832 322.501,-312.061 326.766,-314.67 326.766,-314.67 326.766,-314.67 322.501,-312.061 324.417,-318.509 318.237,-309.451 318.237,-309.451"/>
<text text-anchor="middle" x="320.737" y="-312.251" font-family="Times New Roman,serif" font-size="9.00">1</text>
<text text-anchor="middle" x="387.409" y="-356.11" font-family="Times New Roman,serif" font-size="9.00">1</text>
</g>
<!-- WaitStrategy -->
<g id="node15" class="node"><title>WaitStrategy</title>
<polygon fill="none" stroke="black" points="387,-264.5 387,-310.5 455,-310.5 455,-264.5 387,-264.5"/>
<text text-anchor="middle" x="421" y="-299.3" font-family="Times New Roman,serif" font-size="9.00">&lt;&lt;interface&gt;&gt;</text>
<text text-anchor="middle" x="421" y="-289.3" font-family="Times New Roman,serif" font-size="9.00">WaitStrategy</text>
<polyline fill="none" stroke="black" points="387,-282.5 455,-282.5 "/>
<text text-anchor="middle" x="421" y="-271.3" font-family="Times New Roman,serif" font-size="9.00"> </text>
</g>
<!-- RingBuffer&#45;&gt;WaitStrategy -->
<g id="edge24" class="edge"><title>RingBuffer&#45;&gt;WaitStrategy</title>
<path fill="none" stroke="black" d="M419.406,-332.06C419.544,-328.288 419.683,-324.487 419.819,-320.785"/>
<polygon fill="black" stroke="black" points="419.405,-332.111 423.182,-338.254 418.966,-344.103 415.188,-337.961 419.405,-332.111"/>
<polygon fill="black" stroke="black" points="420.187,-310.722 424.318,-320.88 420.004,-315.719 419.821,-320.716 419.821,-320.716 419.821,-320.716 420.004,-315.719 415.324,-320.551 420.187,-310.722 420.187,-310.722"/>
<text text-anchor="middle" x="417.687" y="-313.522" font-family="Times New Roman,serif" font-size="9.00">1</text>
<text text-anchor="middle" x="416.466" y="-336.903" font-family="Times New Roman,serif" font-size="9.00">1</text>
</g>
<!-- ConsumerBarrier -->
<g id="node12" class="node"><title>ConsumerBarrier</title>
<polygon fill="none" stroke="black" points="518,-348.5 518,-394.5 596,-394.5 596,-348.5 518,-348.5"/>
<text text-anchor="middle" x="557" y="-383.3" font-family="Times New Roman,serif" font-size="9.00">&lt;&lt;interface&gt;&gt;</text>
<text text-anchor="middle" x="557" y="-373.3" font-family="Times New Roman,serif" font-size="9.00">ConsumerBarrier</text>
<polyline fill="none" stroke="black" points="518,-366.5 596,-366.5 "/>
<text text-anchor="middle" x="557" y="-355.3" font-family="Times New Roman,serif" font-size="9.00"> </text>
</g>
<!-- ConsumerBarrier&#45;&gt;RingBuffer -->
<g id="edge21" class="edge"><title>ConsumerBarrier&#45;&gt;RingBuffer</title>
<path fill="none" stroke="black" d="M517.853,-371.5C498.59,-371.5 475.455,-371.5 456.307,-371.5"/>
<polygon fill="black" stroke="black" points="446.129,-371.5 456.129,-367 451.129,-371.5 456.129,-371.5 456.129,-371.5 456.129,-371.5 451.129,-371.5 456.129,-376 446.129,-371.5 446.129,-371.5"/>
<text text-anchor="middle" x="482" y="-377.3" font-family="Times New Roman,serif" font-size="9.00">waitFor</text>
<text text-anchor="middle" x="448.629" y="-374.3" font-family="Times New Roman,serif" font-size="9.00">1</text>
</g>
<!-- Consumer -->
<g id="node13" class="node"><title>Consumer</title>
<polygon fill="none" stroke="black" points="685,-348.5 685,-394.5 753,-394.5 753,-348.5 685,-348.5"/>
<text text-anchor="middle" x="719" y="-383.3" font-family="Times New Roman,serif" font-size="9.00">&lt;&lt;interface&gt;&gt;</text>
<text text-anchor="middle" x="719" y="-373.3" font-family="Times New Roman,serif" font-size="9.00">Consumer</text>
<polyline fill="none" stroke="black" points="685,-366.5 753,-366.5 "/>
<text text-anchor="middle" x="719" y="-355.3" font-family="Times New Roman,serif" font-size="9.00"> </text>
</g>
<!-- ConsumerBarrier&#45;&gt;Consumer -->
<g id="edge22" class="edge"><title>ConsumerBarrier&#45;&gt;Consumer</title>
<path fill="none" stroke="black" d="M596.216,-371.5C619.895,-371.5 650.136,-371.5 674.68,-371.5"/>
<polygon fill="black" stroke="black" points="684.814,-371.5 674.814,-376 679.814,-371.5 674.814,-371.5 674.814,-371.5 674.814,-371.5 679.814,-371.5 674.814,-367 684.814,-371.5 684.814,-371.5"/>
<text text-anchor="middle" x="640.5" y="-377.3" font-family="Times New Roman,serif" font-size="9.00">track sequence</text>
<text text-anchor="middle" x="677.814" y="-374.3" font-family="Times New Roman,serif" font-size="9.00">0..*</text>
<text text-anchor="middle" x="603.216" y="-374.3" font-family="Times New Roman,serif" font-size="9.00">0..*</text>
</g>
<!-- BusySpinWaitStrategy -->
<g id="node20" class="node"><title>BusySpinWaitStrategy</title>
<polygon fill="none" stroke="black" points="507,-176.5 507,-230.5 607,-230.5 607,-176.5 507,-176.5"/>
<text text-anchor="middle" x="557" y="-219.3" font-family="Times New Roman,serif" font-size="9.00">BusySpinWaitStrategy</text>
<polyline fill="none" stroke="black" points="507,-212.5 607,-212.5 "/>
<text text-anchor="middle" x="557" y="-201.3" font-family="Times New Roman,serif" font-size="9.00"> </text>
<polyline fill="none" stroke="black" points="507,-194.5 607,-194.5 "/>
<text text-anchor="middle" x="557" y="-183.3" font-family="Times New Roman,serif" font-size="9.00"> </text>
</g>
<!-- ConsumerBarrier&#45;&gt;BusySpinWaitStrategy -->
<!-- Consumer&#45;&gt;ConsumerBarrier -->
<g id="edge20" class="edge"><title>Consumer&#45;&gt;ConsumerBarrier</title>
<path fill="none" stroke="black" stroke-dasharray="1,5" d="M684.983,-363.274C675.35,-361.304 664.815,-359.487 655,-358.5 639.03,-356.894 621.651,-358.197 606.023,-360.496"/>
<polygon fill="black" stroke="black" points="596.038,-362.131 605.179,-356.075 600.972,-361.323 605.906,-360.515 605.906,-360.515 605.906,-360.515 600.972,-361.323 606.633,-364.956 596.038,-362.131 596.038,-362.131"/>
<text text-anchor="middle" x="640.5" y="-361.3" font-family="Times New Roman,serif" font-size="9.00">waitFor</text>
</g>
<!-- ClaimStrategyIntermediateNode -->
<g id="node17" class="node"><title>ClaimStrategyIntermediateNode</title>
<ellipse fill="black" stroke="black" cx="284" cy="-203.5" rx="0.36" ry="0.36"/>
</g>
<!-- ClaimStrategy&#45;&gt;ClaimStrategyIntermediateNode -->
<!-- WaitStrategyIntermediateNode -->
<g id="node18" class="node"><title>WaitStrategyIntermediateNode</title>
<ellipse fill="black" stroke="black" cx="421" cy="-203.5" rx="0.36" ry="0.36"/>
</g>
<!-- WaitStrategy&#45;&gt;WaitStrategyIntermediateNode -->
<!-- ProducerBarrier -->
<g id="node16" class="node"><title>ProducerBarrier</title>
<polygon fill="none" stroke="black" points="520,-521.5 520,-567.5 594,-567.5 594,-521.5 520,-521.5"/>
<text text-anchor="middle" x="557" y="-556.3" font-family="Times New Roman,serif" font-size="9.00">&lt;&lt;interface&gt;&gt;</text>
<text text-anchor="middle" x="557" y="-546.3" font-family="Times New Roman,serif" font-size="9.00">ProducerBarrier</text>
<polyline fill="none" stroke="black" points="520,-539.5 594,-539.5 "/>
<text text-anchor="middle" x="557" y="-528.3" font-family="Times New Roman,serif" font-size="9.00"> </text>
</g>
<!-- ProducerBarrier&#45;&gt;RingBuffer -->
<g id="edge25" class="edge"><title>ProducerBarrier&#45;&gt;RingBuffer</title>
<path fill="none" stroke="black" d="M538.254,-521.168C514.586,-491.711 473.65,-440.762 446.201,-406.599"/>
<polygon fill="black" stroke="black" points="439.875,-398.726 449.647,-403.703 443.007,-402.624 446.139,-406.522 446.139,-406.522 446.139,-406.522 443.007,-402.624 442.631,-409.34 439.875,-398.726 439.875,-398.726"/>
</g>
<!-- ProducerBarrier&#45;&gt;ConsumerBarrier -->
<!-- ProducerBarrier&#45;&gt;Consumer -->
<g id="edge26" class="edge"><title>ProducerBarrier&#45;&gt;Consumer</title>
<path fill="none" stroke="black" d="M578.848,-521.168C607.673,-490.386 658.473,-436.137 690.35,-402.095"/>
<polygon fill="black" stroke="black" points="697.24,-394.738 693.689,-405.113 693.822,-398.387 690.405,-402.037 690.405,-402.037 690.405,-402.037 693.822,-398.387 687.12,-398.961 697.24,-394.738 697.24,-394.738"/>
</g>
<!-- ClaimStrategyIntermediateNode&#45;&gt;ClaimStrategy -->
<g id="edge28" class="edge"><title>ClaimStrategyIntermediateNode:n&#45;&gt;ClaimStrategy</title>
<path fill="none" stroke="black" d="M284,-205.5C284,-205.5 284,-231.733 284,-254.341"/>
<polygon fill="none" stroke="black" points="280.5,-254.366 284,-264.366 287.5,-254.366 280.5,-254.366"/>
</g>
<!-- WaitStrategyIntermediateNode&#45;&gt;WaitStrategy -->
<g id="edge27" class="edge"><title>WaitStrategyIntermediateNode:n&#45;&gt;WaitStrategy</title>
<path fill="none" stroke="black" d="M421,-205.5C421,-205.5 421,-231.733 421,-254.341"/>
<polygon fill="none" stroke="black" points="417.5,-254.366 421,-264.366 424.5,-254.366 417.5,-254.366"/>
</g>
<!-- SingleThreadedClaimStrategy&#45;&gt;ClaimStrategyIntermediateNode -->
<g id="edge32" class="edge"><title>SingleThreadedClaimStrategy:e&#45;&gt;ClaimStrategyIntermediateNode</title>
<path fill="none" stroke="black" d="M231,-203.5C231,-203.5 282,-203.5 282,-203.5"/>
</g>
<!-- MultiThreadedClaimStrategy -->
<g id="node21" class="node"><title>MultiThreadedClaimStrategy</title>
<polygon fill="none" stroke="black" points="90,-88.5 90,-142.5 212,-142.5 212,-88.5 90,-88.5"/>
<text text-anchor="middle" x="151" y="-131.3" font-family="Times New Roman,serif" font-size="9.00">MultiThreadedClaimStrategy</text>
<polyline fill="none" stroke="black" points="90,-124.5 212,-124.5 "/>
<text text-anchor="middle" x="151" y="-113.3" font-family="Times New Roman,serif" font-size="9.00"> </text>
<polyline fill="none" stroke="black" points="90,-106.5 212,-106.5 "/>
<text text-anchor="middle" x="151" y="-95.3" font-family="Times New Roman,serif" font-size="9.00"> </text>
</g>
<!-- SingleThreadedClaimStrategy&#45;&gt;MultiThreadedClaimStrategy -->
<!-- SingleThreadedClaimStrategy&#45;&gt;MultiThreadedClaimStrategy -->
<!-- BusySpinWaitStrategy&#45;&gt;WaitStrategyIntermediateNode -->
<g id="edge29" class="edge"><title>BusySpinWaitStrategy:w&#45;&gt;WaitStrategyIntermediateNode</title>
<path fill="none" stroke="black" d="M488,-203.5C488,-203.5 421.36,-203.5 421.36,-203.5"/>
</g>
<!-- YieldingWaitStrategy -->
<g id="node22" class="node"><title>YieldingWaitStrategy</title>
<polygon fill="none" stroke="black" points="510.5,-88.5 510.5,-142.5 603.5,-142.5 603.5,-88.5 510.5,-88.5"/>
<text text-anchor="middle" x="557" y="-131.3" font-family="Times New Roman,serif" font-size="9.00">YieldingWaitStrategy</text>
<polyline fill="none" stroke="black" points="510.5,-124.5 603.5,-124.5 "/>
<text text-anchor="middle" x="557" y="-113.3" font-family="Times New Roman,serif" font-size="9.00"> </text>
<polyline fill="none" stroke="black" points="510.5,-106.5 603.5,-106.5 "/>
<text text-anchor="middle" x="557" y="-95.3" font-family="Times New Roman,serif" font-size="9.00"> </text>
</g>
<!-- BusySpinWaitStrategy&#45;&gt;YieldingWaitStrategy -->
<!-- MultiThreadedClaimStrategy&#45;&gt;ClaimStrategyIntermediateNode -->
<g id="edge33" class="edge"><title>MultiThreadedClaimStrategy:e&#45;&gt;ClaimStrategyIntermediateNode</title>
<path fill="none" stroke="black" d="M213,-115.5C213,-115.5 283,-202.5 283,-202.5"/>
</g>
<!-- YieldingWaitStrategy&#45;&gt;WaitStrategyIntermediateNode -->
<g id="edge30" class="edge"><title>YieldingWaitStrategy:w&#45;&gt;WaitStrategyIntermediateNode</title>
<path fill="none" stroke="black" d="M509,-115.5C509,-115.5 421,-202.5 421,-202.5"/>
</g>
<!-- BlockingWaitStrategy -->
<g id="node23" class="node"><title>BlockingWaitStrategy</title>
<polygon fill="none" stroke="black" points="509.5,-0.5 509.5,-54.5 604.5,-54.5 604.5,-0.5 509.5,-0.5"/>
<text text-anchor="middle" x="557" y="-43.3" font-family="Times New Roman,serif" font-size="9.00">BlockingWaitStrategy</text>
<polyline fill="none" stroke="black" points="509.5,-36.5 604.5,-36.5 "/>
<text text-anchor="middle" x="557" y="-25.3" font-family="Times New Roman,serif" font-size="9.00"> </text>
<polyline fill="none" stroke="black" points="509.5,-18.5 604.5,-18.5 "/>
<text text-anchor="middle" x="557" y="-7.3" font-family="Times New Roman,serif" font-size="9.00"> </text>
</g>
<!-- YieldingWaitStrategy&#45;&gt;BlockingWaitStrategy -->
<!-- BlockingWaitStrategy&#45;&gt;WaitStrategyIntermediateNode -->
<g id="edge31" class="edge"><title>BlockingWaitStrategy:w&#45;&gt;WaitStrategyIntermediateNode</title>
<path fill="none" stroke="black" d="M509,-27.5C509,-27.5 421,-203.5 421,-203.5"/>
</g>
</g>
</svg>
